<?xml version="1.0" encoding="UTF-8"?><svg id="_레이어_2" xmlns="http://www.w3.org/2000/svg" viewBox="0 0 230.45 114.56"><defs><style>.cls-1{fill:#e8d192;}.cls-2{fill:#e38079;}.cls-3{fill:#77b974;}</style></defs><g id="_레이어_1-2"><g><path d="M19.36,111.85H11.14v-14.68c-3.75,.1-7.13,.14-10.15,.1-.17-.97-.5-3.23-.99-6.77,12.39,.14,22.18-.16,29.36-.89l.57,6.14c-2.01,.31-5.54,.64-10.57,.99v15.1Zm9.94-30.87l-3.96,6.4c-1.8-.24-3.72-1.01-5.75-2.32-2.03-1.3-3.46-2.89-4.29-4.76-.83,2.05-2.29,3.79-4.37,5.23-2.08,1.44-4.29,2.37-6.61,2.79l-3.85-6.45c3.33-.62,5.94-1.98,7.83-4.06,1.89-2.08,2.84-4.49,2.84-7.24v-2.19h8.69v2.03c0,2.64,.79,4.93,2.37,6.87,1.58,1.94,3.95,3.18,7.1,3.7Zm10.31,32.43h-8.17v-46.85h8.17v46.85Z"/><path d="M67.88,102.22h-8.22v-7.08h-17.39v-6.4h42.37v6.4h-16.76v7.08Zm12.65-25.09c0,2.78-1.55,5.12-4.66,7.03-3.11,1.91-7.25,2.86-12.42,2.86s-9.31-.95-12.42-2.86c-3.11-1.91-4.66-4.25-4.66-7.03s1.55-5.07,4.66-6.98c3.11-1.91,7.23-2.86,12.36-2.86s9.32,.96,12.44,2.86c3.12,1.91,4.68,4.24,4.68,6.98Zm-.47,35.24H46.95v-13.85h8.12v7.6h24.99v6.25Zm-10.62-37.58c-1.49-.66-3.51-.99-6.04-.99s-4.54,.33-6.01,.99-2.21,1.48-2.21,2.45,.74,1.83,2.21,2.47c1.48,.64,3.5,.96,6.06,.96s4.54-.32,6.01-.96c1.48-.64,2.21-1.47,2.21-2.47s-.75-1.79-2.24-2.45Z"/><path d="M83.5,114.56l2.24-11.04h8.75l-4.16,11.04h-6.82Z"/><path d="M110.56,99.28c-2.32-3.21-3.49-7.31-3.49-12.31s1.16-9.1,3.49-12.31c2.32-3.21,5.41-4.81,9.27-4.81s7.03,1.59,9.34,4.76c2.31,3.18,3.46,7.28,3.46,12.31s-1.15,9.11-3.46,12.34c-2.31,3.23-5.42,4.84-9.34,4.84s-6.94-1.6-9.27-4.81Zm14.16-12.36c0-3.16-.45-5.55-1.35-7.18s-2.08-2.45-3.54-2.45-2.53,.82-3.44,2.45-1.35,4.03-1.35,7.18,.45,5.6,1.35,7.24,2.05,2.45,3.44,2.45,2.64-.81,3.54-2.42c.9-1.61,1.35-4.04,1.35-7.26Zm20.72,26.5h-8.12v-46.85h8.12v46.85Z"/><path d="M171.99,87.34l.89,6.04c-2.95,.76-9.21,1.14-18.79,1.14h-4.32v-15.93h13.01v-2.81h-13.01v-6.3h21.19v14.99h-12.96v3.96c1.84,.1,4.29,.04,7.37-.18,3.07-.22,5.28-.53,6.64-.91Zm-17.39,9.99h33.42v16.14h-8.22v-9.84h-25.19v-6.3Zm19-18.01v-6.72h6.14v-6.04h8.23v28.89h-8.23v-5.94h-6.14v-6.61h6.14v-3.59h-6.14Z"/><path d="M219.51,97.02l-4.74,6.4c-1.87-.94-3.79-2.5-5.75-4.68-1.96-2.19-3.32-4.32-4.09-6.4-.66,2.26-1.94,4.52-3.83,6.79-1.89,2.27-4.05,4.05-6.48,5.34l-5-6.3c4.03-2.05,6.89-4.85,8.59-8.41,1.7-3.56,2.55-8.04,2.55-13.46v-6.19h8.17v6.04c0,5.31,.81,9.66,2.42,13.07,1.61,3.4,4.33,6,8.15,7.81Zm10.93,16.4h-8.23v-24.36h-7.76v-6.87h7.76v-15.62h8.23v46.85Z"/></g><g><path id="_다각형_1" class="cls-1" d="M77.34,17.82c3.02,1.74,4.07,5.6,2.32,8.63-.56,.97-1.36,1.77-2.32,2.32l-29.46,16.98c-3.02,1.75-6.89,.71-8.63-2.31-.56-.96-.85-2.05-.85-3.16V6.32C38.4,2.83,41.22,0,44.71,0c1.11,0,2.2,.29,3.16,.85l29.46,16.98Z"/><circle id="_타원_10" class="cls-2" cx="112.42" cy="23.3" r="23.3"/><rect id="_사각형_21" class="cls-3" x="145.7" y=".13" width="46.34" height="46.34" rx="6.32" ry="6.32"/></g></g></svg>