<?xml version="1.0" encoding="UTF-8"?><svg id="_레이어_2" xmlns="http://www.w3.org/2000/svg" viewBox="0 0 248.14 30.75"><defs><style>.cls-1{fill:#191210;}.cls-2{fill:none;}</style></defs><g id="_레이어_1-2"><g id="_그룹_3"><path id="_패스_1" class="cls-1" d="M0,.67V30.08H16.72v-6.48H7.63v-5.07h8.6v-6.48H7.63V7.16h9.09V.67H0Z"/><path id="_패스_2" class="cls-1" d="M33.15,9.8l3.31,9.52h-6.52l3.22-9.52ZM29.05,.67l-11.29,29.41h8.07l1.98-4.94h10.67l1.81,4.94h8.16L37.38,.67h-8.33Z"/><g id="_그룹_2"><path id="_패스_3" class="cls-1" d="M52.75,21.27c1.8,1.8,4.2,2.87,6.75,3,1.08,.09,2.16-.27,2.96-1.01,.48-.5,.75-1.16,.75-1.85,0-.68-.31-1.33-.83-1.76-.75-.66-1.9-.97-3.79-1.54l-1.99-.62c-1.59-.42-3.05-1.24-4.23-2.38-1.2-1.46-1.8-3.32-1.67-5.2-.12-2.64,.85-5.2,2.69-7.1C55.41,.89,58.12-.12,60.91,.01c3.17,.09,6.28,.9,9.08,2.38l-3.04,5.95c-1.38-1.24-3.17-1.95-5.03-1.99-.92-.03-1.82,.29-2.51,.89-.46,.4-.73,.97-.75,1.59-.03,.48,.11,.95,.4,1.33,.7,.69,1.59,1.15,2.56,1.32l2.33,.71c2.01,.46,3.86,1.47,5.34,2.91,1.34,1.41,2.02,3.31,1.89,5.25,.14,2.75-.87,5.43-2.78,7.41-2.51,2.51-5.56,3-8.69,3-1.97,.04-3.93-.29-5.78-.97-1.58-.59-3.07-1.38-4.45-2.33l3.26-6.18Z"/><path id="_패스_4" class="cls-1" d="M82.86,15.97L72.23,.67h9.13l5.56,8.03L92.25,.67h9.26l-10.98,15.3v14.11h-7.67V15.97Z"/><path id="_패스_5" class="cls-1" d="M123.92,.67l5.11,19L135.25,.67h6.08l5.78,19L152.67,.67h7.98l-9.39,29.41h-7.81l-5.33-17.02-5.64,17.02h-7.76L115.94,.67h7.98Z"/><path id="_패스_6" class="cls-1" d="M189.52,26.38c-3.17,2.89-7.32,4.45-11.6,4.37-4.28,.08-8.43-1.48-11.6-4.37-6.08-5.94-6.18-15.68-.24-21.76,.08-.08,.16-.16,.24-.24C169.49,1.49,173.64-.07,177.92,.01c4.28-.08,8.43,1.48,11.6,4.36,6.08,5.94,6.19,15.67,.25,21.75-.08,.09-.17,.17-.25,.25m-17.55-16.62c-1.52,1.53-2.36,3.62-2.34,5.78-.01,2.07,.84,4.05,2.34,5.47,1.59,1.54,3.74,2.38,5.95,2.33,4.41,.16,8.12-3.28,8.29-7.69,0-.08,0-.17,0-.25,0-2.12-.86-4.16-2.38-5.64-1.61-1.49-3.72-2.32-5.91-2.34-2.21-.03-4.35,.81-5.95,2.34"/><path id="_패스_7" class="cls-1" d="M207.1,.67c2.65-.18,5.26,.77,7.19,2.6,1.65,1.81,2.55,4.17,2.52,6.62,.07,2.27-.77,4.48-2.34,6.13-1.14,1.04-2.54,1.74-4.06,2.03l9.21,12.04h-9.48l-7.32-11.29v11.29h-7.63V.67h11.9Zm-4.28,13.18h1.46c1.33,.05,2.64-.37,3.7-1.19,.62-.67,.97-1.55,.97-2.47,0-.93-.36-1.82-1.01-2.47-1.03-.84-2.34-1.25-3.66-1.15h-1.45v7.28Z"/><path id="_패스_8" class="cls-1" d="M228.29,12.8L237.64,.67h9.44l-11.68,13.94,12.74,15.48h-9.88l-9.96-12.75v12.75h-7.63V.67h7.63V12.8Z"/><rect id="_사각형_2" class="cls-2" y=".01" width="248.14" height="30.73"/></g></g></g></svg>