<?xml version="1.0" encoding="UTF-8"?><svg id="_레이어_2" xmlns="http://www.w3.org/2000/svg" xmlns:xlink="http://www.w3.org/1999/xlink" viewBox="0 0 121.05 202.88"><defs><style>.cls-1{fill:#e48179;}.cls-2{clip-path:url(#clippath);}.cls-3{fill:none;}</style><clipPath id="clippath"><rect class="cls-3" x=".02" y="0" width="121.01" height="202.88"/></clipPath></defs><g id="_레이어_1-2"><g id="_그룹_15"><g class="cls-2"><g id="_그룹_14"><path id="_패스_20" class="cls-1" d="M60.53,162.72c-39.65,0-58.35-31.66-59.13-33.01-2.87-4.94-1.19-11.27,3.75-14.14,4.94-2.87,11.27-1.19,14.14,3.75,.55,.93,13.77,22.71,41.24,22.71s40.68-21.78,41.23-22.71c2.87-4.94,9.2-6.62,14.14-3.76,4.94,2.87,6.62,9.2,3.75,14.14-.78,1.35-19.48,33.01-59.12,33.01Z"/><path id="_선_1" class="cls-1" d="M60.52,196.07c-5.71,0-10.34-4.63-10.34-10.34v-33.35c0-5.71,4.63-10.34,10.34-10.34s10.34,4.63,10.34,10.34v33.35c0,5.71-4.63,10.34-10.34,10.34Z"/><path id="_선_2" class="cls-1" d="M88.68,202.88H33.39c-5.71,0-10.34-4.63-10.34-10.34s4.63-10.34,10.34-10.34h55.28c5.71,0,10.34,4.63,10.34,10.34s-4.63,10.34-10.34,10.34Z"/><path id="_패스_21" class="cls-1" d="M60.53,0C41.83,0,26.68,15.15,26.68,33.85v3.16h28.03c3.83,0,6.94,3.11,6.94,6.94,0,3.83-3.11,6.93-6.94,6.94H26.68v9.82h28.03c3.83,0,6.93,3.11,6.93,6.94,0,3.83-3.1,6.93-6.93,6.93H26.68v9.82h29.35c3.83,0,6.94,3.11,6.94,6.94,0,3.83-3.11,6.93-6.94,6.94H26.76c.87,18.66,16.71,33.08,35.37,32.2,18.06-.85,32.26-15.74,32.24-33.82V33.85C94.37,15.16,79.22,0,60.53,0"/></g></g></g></g></svg>