<?xml version="1.0" encoding="UTF-8"?><svg id="_레이어_2" xmlns="http://www.w3.org/2000/svg" viewBox="0 0 44 44"><defs><style>.cls-1{fill:#ede7d9;}.cls-2{fill:#e48179;}</style></defs><g id="_레이어_1-2"><circle id="_타원_10" class="cls-2" cx="22" cy="22" r="22"/><g><path id="_사각형_32" class="cls-1" d="M16.1,9.74h0c1.55,0,2.81,1.26,2.81,2.81V31.67c0,1.55-1.26,2.81-2.81,2.81h0c-1.55,0-2.81-1.26-2.81-2.81V12.55c0-1.55,1.26-2.81,2.81-2.81Z"/><path id="_사각형_33" class="cls-1" d="M27.9,9.74h0c1.55,0,2.81,1.26,2.81,2.81V31.67c0,1.55-1.26,2.81-2.81,2.81h0c-1.55,0-2.81-1.26-2.81-2.81V12.55c0-1.55,1.26-2.81,2.81-2.81Z"/></g></g></svg>