<?xml version="1.0" encoding="UTF-8"?><svg id="_레이어_2" xmlns="http://www.w3.org/2000/svg" xmlns:xlink="http://www.w3.org/1999/xlink" viewBox="0 0 71.19 71.19"><defs><style>.cls-1{fill:url(#_무제_그라디언트_14);}</style><linearGradient id="_무제_그라디언트_14" x1="35.59" y1="18.14" x2="35.59" y2="57.2" gradientUnits="userSpaceOnUse"><stop offset="0" stop-color="#e48179"/><stop offset=".32" stop-color="#e6b789"/><stop offset=".5" stop-color="#e8d192"/><stop offset=".58" stop-color="#ddce8f"/><stop offset=".72" stop-color="#c0c887"/><stop offset=".91" stop-color="#91bf7b"/><stop offset="1" stop-color="#77ba75"/></linearGradient></defs><g id="_레이어_1-2"><path class="cls-1" d="M49.91,4h0c-2.21-3.82-7.1-5.13-10.92-2.93L4,21.27C.17,23.48-1.14,28.37,1.07,32.2l4,6.92,2.11,3.65,8,13.85,2.11,3.65,4,6.92c2.21,3.82,7.1,5.13,10.92,2.93l34.99-20.2c3.82-2.21,5.13-7.1,2.93-10.92h0c-2.21-3.82-7.1-5.13-10.92-2.93l-28.07,16.2-2.11-3.65,15.62-9.02c3.82-2.21,5.13-7.1,2.93-10.92h0c-2.21-3.82-7.1-5.13-10.92-2.93l-15.62,9.02-2.11-3.65L46.98,14.92c3.82-2.21,5.13-7.1,2.93-10.92Z"/></g></svg>